<?xml version="1.0" encoding="UTF-8" standalone="no"?>
<!DOCTYPE svg PUBLIC "-//W3C//DTD SVG 1.1//EN" "http://www.w3.org/Graphics/SVG/1.1/DTD/svg11.dtd">
<svg width="100%" height="100%" viewBox="0 0 474 474" version="1.1" xmlns="http://www.w3.org/2000/svg" xmlns:xlink="http://www.w3.org/1999/xlink" xml:space="preserve" xmlns:serif="http://www.serif.com/" style="fill-rule:evenodd;clip-rule:evenodd;stroke-linecap:round;stroke-linejoin:round;stroke-miterlimit:1.5;">
    <g transform="matrix(1,0,0,1,-1856.849196,-1243.048202)">
        <g>
            <g transform="matrix(1.766667,0,0,1.766667,-276.886915,-869.952667)">
                <g transform="matrix(2.910602,0,0,0.993056,-953.902115,1146.374181)">
                    <path d="M766.217,215.049C765.931,215.049 765.787,214.741 765.787,214.126C765.787,213.622 765.911,213.287 766.16,213.119L766.818,212.783C767.219,212.559 767.481,212.252 767.605,211.86C767.73,211.469 767.792,210.685 767.792,209.51L767.792,160.168C767.792,158.993 767.73,158.21 767.605,157.818C767.481,157.427 767.219,157.119 766.818,156.895L766.16,156.559C765.911,156.392 765.787,156.056 765.787,155.552C765.787,154.937 765.931,154.629 766.217,154.629L771.456,154.629C771.743,154.629 771.886,154.965 771.886,155.636C771.886,156.14 771.781,156.448 771.571,156.559L770.798,156.895C770.397,157.063 770.135,157.371 770.01,157.818C769.886,158.266 769.824,159.077 769.824,160.252L769.824,181.315C769.824,182.098 769.958,182.49 770.225,182.49L775.894,182.49C776.161,182.49 776.295,182.098 776.295,181.315L776.295,160.252C776.295,159.077 776.233,158.266 776.109,157.818C775.985,157.371 775.722,157.063 775.322,156.895L774.548,156.559C774.339,156.448 774.234,156.14 774.234,155.636C774.234,154.965 774.377,154.629 774.663,154.629L779.902,154.629C780.189,154.629 780.332,154.937 780.332,155.552C780.332,156.056 780.208,156.392 779.96,156.559L779.301,156.895C778.9,157.119 778.638,157.427 778.514,157.818C778.39,158.21 778.328,158.993 778.328,160.168L778.328,209.51C778.328,210.685 778.39,211.469 778.514,211.86C778.638,212.252 778.9,212.559 779.301,212.783L779.96,213.119C780.208,213.287 780.332,213.622 780.332,214.126C780.332,214.741 780.189,215.049 779.902,215.049L774.663,215.049C774.377,215.049 774.234,214.713 774.234,214.042C774.234,213.538 774.339,213.231 774.548,213.119L775.322,212.783C775.722,212.615 775.985,212.308 776.109,211.86C776.233,211.413 776.295,210.601 776.295,209.427L776.295,186.182C776.295,185.399 776.161,185.007 775.894,185.007L770.225,185.007C769.958,185.007 769.824,185.399 769.824,186.182L769.824,209.427C769.824,210.601 769.886,211.413 770.01,211.86C770.135,212.308 770.397,212.615 770.798,212.783L771.571,213.119C771.781,213.231 771.886,213.538 771.886,214.042C771.886,214.713 771.743,215.049 771.456,215.049L766.217,215.049Z" style="fill:rgb(48,72,48);"/>
                </g>
                <g transform="matrix(2.910602,0,0,0.993056,-953.902115,1146.374181)">
                    <path d="M781.849,215.049C781.563,215.049 781.42,214.741 781.42,214.126C781.42,213.622 781.544,213.287 781.792,213.119L782.451,212.783C782.851,212.559 783.114,212.252 783.238,211.86C783.362,211.469 783.424,210.685 783.424,209.51L783.424,160.168C783.424,158.993 783.362,158.21 783.238,157.818C783.114,157.427 782.851,157.119 782.451,156.895L781.792,156.559C781.544,156.392 781.42,156.056 781.42,155.552C781.42,154.937 781.563,154.629 781.849,154.629L787.089,154.629C787.375,154.629 787.518,154.965 787.518,155.636C787.518,156.14 787.413,156.448 787.203,156.559L786.43,156.895C786.03,157.063 785.767,157.371 785.643,157.818C785.519,158.266 785.457,159.077 785.457,160.252L785.457,181.315C785.457,182.098 785.591,182.49 785.858,182.49L791.527,182.49C791.794,182.49 791.927,182.098 791.927,181.315L791.927,160.252C791.927,159.077 791.865,158.266 791.741,157.818C791.617,157.371 791.355,157.063 790.954,156.895L790.181,156.559C789.971,156.448 789.866,156.14 789.866,155.636C789.866,154.965 790.009,154.629 790.296,154.629L795.535,154.629C795.821,154.629 795.964,154.937 795.964,155.552C795.964,156.056 795.84,156.392 795.592,156.559L794.934,156.895C794.533,157.119 794.27,157.427 794.146,157.818C794.022,158.21 793.96,158.993 793.96,160.168L793.96,209.51C793.96,210.685 794.022,211.469 794.146,211.86C794.27,212.252 794.533,212.559 794.934,212.783L795.592,213.119C795.84,213.287 795.964,213.622 795.964,214.126C795.964,214.741 795.821,215.049 795.535,215.049L790.296,215.049C790.009,215.049 789.866,214.713 789.866,214.042C789.866,213.538 789.971,213.231 790.181,213.119L790.954,212.783C791.355,212.615 791.617,212.308 791.741,211.86C791.865,211.413 791.927,210.601 791.927,209.427L791.927,186.182C791.927,185.399 791.794,185.007 791.527,185.007L785.858,185.007C785.591,185.007 785.457,185.399 785.457,186.182L785.457,209.427C785.457,210.601 785.519,211.413 785.643,211.86C785.767,212.308 786.03,212.615 786.43,212.783L787.203,213.119C787.413,213.231 787.518,213.538 787.518,214.042C787.518,214.713 787.375,215.049 787.089,215.049L781.849,215.049Z" style="fill:rgb(48,72,48);"/>
                </g>
                <g transform="matrix(2.910602,0,0,0.993056,-953.902115,1146.374181)">
                    <path d="M797.482,215.049C797.196,215.049 797.052,214.741 797.052,214.126C797.052,213.622 797.177,213.287 797.425,213.119L798.083,212.783C798.484,212.559 798.746,212.252 798.87,211.86C798.995,211.469 799.057,210.685 799.057,209.51L799.057,160.168C799.057,158.993 798.995,158.21 798.87,157.818C798.746,157.427 798.484,157.119 798.083,156.895L797.425,156.559C797.177,156.392 797.052,156.056 797.052,155.552C797.052,154.937 797.196,154.629 797.482,154.629L802.721,154.629C803.008,154.629 803.151,154.965 803.151,155.636C803.151,156.14 803.046,156.448 802.836,156.559L802.063,156.895C801.662,157.063 801.4,157.371 801.276,157.818C801.151,158.266 801.089,159.077 801.089,160.252L801.089,181.315C801.089,182.098 801.223,182.49 801.49,182.49L807.159,182.49C807.426,182.49 807.56,182.098 807.56,181.315L807.56,160.252C807.56,159.077 807.498,158.266 807.374,157.818C807.25,157.371 806.987,157.063 806.587,156.895L805.814,156.559C805.604,156.448 805.499,156.14 805.499,155.636C805.499,154.965 805.642,154.629 805.928,154.629L811.167,154.629C811.454,154.629 811.597,154.937 811.597,155.552C811.597,156.056 811.473,156.392 811.225,156.559L810.566,156.895C810.165,157.119 809.903,157.427 809.779,157.818C809.655,158.21 809.593,158.993 809.593,160.168L809.593,209.51C809.593,210.685 809.655,211.469 809.779,211.86C809.903,212.252 810.165,212.559 810.566,212.783L811.225,213.119C811.473,213.287 811.597,213.622 811.597,214.126C811.597,214.741 811.454,215.049 811.167,215.049L805.928,215.049C805.642,215.049 805.499,214.713 805.499,214.042C805.499,213.538 805.604,213.231 805.814,213.119L806.587,212.783C806.987,212.615 807.25,212.308 807.374,211.86C807.498,211.413 807.56,210.601 807.56,209.427L807.56,186.182C807.56,185.399 807.426,185.007 807.159,185.007L801.49,185.007C801.223,185.007 801.089,185.399 801.089,186.182L801.089,209.427C801.089,210.601 801.151,211.413 801.276,211.86C801.4,212.308 801.662,212.615 802.063,212.783L802.836,213.119C803.046,213.231 803.151,213.538 803.151,214.042C803.151,214.713 803.008,215.049 802.721,215.049L797.482,215.049Z" style="fill:rgb(48,72,48);"/>
                </g>
            </g>
            <g transform="matrix(1,0,0,1,888.890863,65.089868)">
                <path d="M1204.5,1179C1334.476,1179 1440,1284.524 1440,1414.5C1440,1544.476 1334.476,1650 1204.5,1650C1074.524,1650 969,1544.476 969,1414.5C969,1284.524 1074.524,1179 1204.5,1179ZM1204.5,1246.055C1297.467,1246.055 1372.945,1321.533 1372.945,1414.5C1372.945,1507.467 1297.467,1582.945 1204.5,1582.945C1111.533,1582.945 1036.055,1507.467 1036.055,1414.5C1036.055,1321.533 1111.533,1246.055 1204.5,1246.055Z" style="fill:none;stroke:rgb(48,72,48);stroke-width:2.08px;"/>
            </g>
            <g transform="matrix(0.77707,-0,0,0.740977,1157.409971,422.978403)">
                <path d="M922.317,1459.683L970.445,1447.583L971.272,1451.2L948.241,1456.991L955.521,1488.838L978.553,1483.047L979.379,1486.664L931.252,1498.765L930.425,1495.148L952.372,1489.63L945.091,1457.783L923.144,1463.301L922.317,1459.683Z" style="fill:rgb(48,72,48);"/>
                <path d="M969.748,1419.446C969.805,1422.102 969.358,1424.582 968.408,1426.888C967.458,1429.193 966.13,1431.217 964.425,1432.96C962.719,1434.703 960.731,1436.077 958.462,1437.081C956.193,1438.085 953.768,1438.617 951.186,1438.678C947.774,1438.758 944.647,1438.017 941.804,1436.454C938.962,1434.891 936.67,1432.723 934.93,1429.952C933.189,1427.18 932.281,1424.03 932.206,1420.501C932.129,1416.924 932.913,1413.718 934.556,1410.882C936.2,1408.046 938.41,1405.783 941.186,1404.092C943.962,1402.402 947.041,1401.516 950.423,1401.437C950.705,1401.43 950.976,1401.429 951.237,1401.434C951.497,1401.439 951.717,1401.45 951.897,1401.467L952.612,1434.827C955.392,1434.54 957.872,1433.671 960.054,1432.221C962.235,1430.771 963.942,1428.918 965.173,1426.66C966.405,1424.403 966.993,1421.974 966.937,1419.374C966.88,1416.708 966.185,1414.226 964.851,1411.927C963.517,1409.628 961.818,1408.031 959.752,1407.136L960.523,1403.89C962.227,1404.597 963.773,1405.723 965.162,1407.269C966.551,1408.815 967.65,1410.64 968.459,1412.743C969.268,1414.847 969.698,1417.081 969.748,1419.446ZM949.959,1434.987L949.316,1404.967C946.458,1405.229 943.95,1406.077 941.791,1407.51C939.632,1408.942 937.949,1410.774 936.74,1413.003C935.531,1415.232 934.956,1417.696 935.013,1420.394C935.07,1423.044 935.75,1425.454 937.053,1427.623C938.356,1429.793 940.122,1431.531 942.353,1432.836C944.583,1434.142 947.119,1434.859 949.959,1434.987Z" style="fill:rgb(48,72,48);"/>
                <path d="M958.806,1394.503C956.663,1394.155 954.898,1393.18 953.509,1391.578C952.121,1389.975 951.154,1387.924 950.608,1385.425C950.062,1382.926 950.018,1380.128 950.474,1377.029C950.758,1375.101 951.205,1373.122 951.816,1371.091C952.426,1369.06 953.143,1367.275 953.965,1365.736L950.539,1365.181C947.245,1364.647 944.465,1365.229 942.198,1366.926C939.932,1368.623 938.543,1371.21 938.031,1374.685C937.75,1376.594 937.83,1378.613 938.271,1380.743C938.712,1382.872 939.468,1385.109 940.539,1387.452L937.817,1388.552C936.593,1385.866 935.754,1383.312 935.302,1380.889C934.849,1378.466 934.788,1376.131 935.119,1373.886C935.777,1369.419 937.554,1366.08 940.451,1363.869C943.347,1361.657 946.978,1360.905 951.345,1361.613L969.111,1364.492C969.691,1364.586 970.141,1364.526 970.459,1364.312C970.778,1364.098 970.984,1363.739 971.079,1363.235L973.916,1363.695C973.892,1364.14 973.863,1364.504 973.829,1364.787C973.795,1365.071 973.751,1365.302 973.699,1365.479C973.459,1366.39 972.997,1367.042 972.31,1367.433C971.624,1367.825 970.919,1367.983 970.194,1367.909L967.333,1367.511C969.157,1369.538 970.444,1372.01 971.195,1374.927C971.946,1377.844 972.103,1380.79 971.664,1383.768C971.315,1386.137 970.514,1388.19 969.26,1389.927C968.006,1391.663 966.461,1392.942 964.623,1393.765C962.786,1394.587 960.847,1394.833 958.806,1394.503ZM965.554,1369.083C965.058,1368.521 964.545,1368.072 964.018,1367.738C963.49,1367.404 963.01,1367.201 962.577,1367.131L956.636,1366.169C955.727,1367.798 954.97,1369.533 954.367,1371.374C953.764,1373.215 953.318,1375.118 953.028,1377.084C952.474,1380.85 952.743,1384.01 953.836,1386.564C954.929,1389.118 956.686,1390.591 959.106,1390.983C960.613,1391.228 962.069,1391.048 963.473,1390.445C964.878,1389.841 966.078,1388.863 967.074,1387.511C968.071,1386.159 968.711,1384.517 968.996,1382.585C969.39,1379.911 969.267,1377.354 968.627,1374.916C967.987,1372.478 966.963,1370.534 965.554,1369.083Z" style="fill:rgb(48,72,48);"/>
                <path d="M928.098,1338.429L929.126,1334.936L970.915,1348.465C972.476,1348.971 973.671,1348.966 974.5,1348.452C975.328,1347.937 975.908,1347.114 976.241,1345.984C976.452,1345.266 976.6,1344.486 976.683,1343.644C976.766,1342.802 976.799,1342.046 976.78,1341.377L979.698,1341.55C979.742,1342.429 979.701,1343.486 979.575,1344.718C979.449,1345.951 979.263,1346.986 979.016,1347.824C978.44,1349.782 977.415,1351.168 975.942,1351.982C974.468,1352.796 972.764,1352.889 970.827,1352.262L928.098,1338.429Z" style="fill:rgb(48,72,48);"/>
                <path d="M986.59,1320.027C986.601,1320.286 986.64,1320.834 986.706,1321.669C986.773,1322.505 986.75,1323.497 986.638,1324.645C986.527,1325.793 986.228,1327 985.743,1328.267C985.266,1329.511 984.596,1330.566 983.731,1331.429C982.867,1332.293 981.863,1332.852 980.72,1333.108C979.577,1333.364 978.364,1333.221 977.082,1332.681L951.74,1322.003L949.837,1326.971L947.145,1325.836L949.048,1320.869L937.541,1316.02L938.84,1312.629L950.347,1317.477L953.504,1309.238L956.196,1310.372L953.04,1318.612L977.61,1328.965C978.877,1329.393 979.991,1329.305 980.955,1328.701C981.919,1328.097 982.614,1327.236 983.042,1326.12C983.579,1324.718 983.818,1323.397 983.758,1322.157C983.698,1320.918 983.65,1320.194 983.613,1319.987L986.59,1320.027Z" style="fill:rgb(48,72,48);"/>
                <path d="M1005.445,1287.736L1003.703,1290.902L986.175,1280.292C982.326,1277.962 979.045,1276.904 976.331,1277.117C973.618,1277.33 971.529,1278.767 970.064,1281.428C969.093,1283.193 968.559,1285.191 968.463,1287.42C968.367,1289.649 968.698,1291.834 969.455,1293.976C970.213,1296.117 971.368,1298.027 972.92,1299.705L992.375,1311.482L990.633,1314.648L946.562,1287.97L948.305,1284.805L968.467,1297.01C966.743,1294.19 965.821,1291.144 965.699,1287.871C965.576,1284.598 966.268,1281.594 967.773,1278.859C968.787,1277.017 969.969,1275.634 971.318,1274.71C972.667,1273.785 974.185,1273.267 975.871,1273.156C977.557,1273.045 979.357,1273.298 981.271,1273.915C983.186,1274.533 985.223,1275.496 987.385,1276.804L1005.445,1287.736Z" style="fill:rgb(48,72,48);"/>
                <path d="M1022.088,1285.749C1022.555,1285.191 1022.974,1284.67 1023.344,1284.187C1023.715,1283.703 1023.917,1283.29 1023.952,1282.948C1024.127,1282.512 1024.119,1281.92 1023.927,1281.172C1023.736,1280.424 1023.231,1279.183 1022.412,1277.45C1021.592,1275.716 1020.342,1273.199 1018.66,1269.898L980.395,1258.739L982.763,1255.735L1016.989,1265.91L1000.398,1233.368L1002.65,1230.512L1026.785,1278.449C1027.145,1279.154 1027.396,1279.9 1027.539,1280.689C1027.681,1281.477 1027.665,1282.27 1027.491,1283.067C1027.317,1283.863 1026.936,1284.678 1026.347,1285.511C1026.12,1285.884 1025.865,1286.265 1025.582,1286.655C1025.298,1287.045 1024.95,1287.451 1024.537,1287.873L1022.088,1285.749Z" style="fill:rgb(48,72,48);"/>
                <path d="M1050.673,1171.772L1079.383,1214.048L1076.494,1216.206L1062.754,1195.975L1037.318,1214.974L1051.057,1235.205L1048.168,1237.362L1019.458,1195.086L1022.346,1192.928L1035.439,1212.207L1060.875,1193.208L1047.783,1173.93L1050.673,1171.772Z" style="fill:rgb(48,72,48);"/>
                <path d="M1103.598,1202.485C1101.292,1203.585 1098.955,1204.132 1096.587,1204.126C1094.219,1204.119 1091.946,1203.632 1089.768,1202.663C1087.59,1201.694 1085.631,1200.323 1083.891,1198.548C1082.152,1196.774 1080.761,1194.685 1079.719,1192.283C1078.658,1189.836 1078.066,1187.338 1077.946,1184.792C1077.825,1182.245 1078.133,1179.793 1078.868,1177.434C1079.604,1175.075 1080.752,1172.956 1082.313,1171.075C1083.873,1169.195 1085.791,1167.712 1088.064,1166.628C1090.338,1165.543 1092.659,1165.004 1095.026,1165.011C1097.394,1165.018 1099.672,1165.503 1101.859,1166.467C1104.047,1167.431 1106.017,1168.798 1107.768,1170.566C1109.52,1172.335 1110.926,1174.443 1111.988,1176.891C1113.03,1179.293 1113.617,1181.765 1113.749,1184.306C1113.881,1186.847 1113.574,1189.3 1112.826,1191.664C1112.079,1194.028 1110.931,1196.148 1109.382,1198.023C1107.833,1199.898 1105.905,1201.385 1103.598,1202.485ZM1082.991,1190.844C1084.17,1193.563 1085.827,1195.771 1087.963,1197.467C1090.098,1199.163 1092.426,1200.212 1094.948,1200.614C1097.47,1201.016 1099.912,1200.654 1102.274,1199.527C1104.634,1198.401 1106.505,1196.693 1107.885,1194.403C1109.265,1192.113 1110.045,1189.547 1110.226,1186.704C1110.407,1183.862 1109.908,1181.082 1108.73,1178.365C1107.551,1175.647 1105.886,1173.436 1103.733,1171.733C1101.581,1170.031 1099.233,1168.97 1096.689,1168.552C1094.146,1168.134 1091.696,1168.487 1089.34,1169.611C1087.003,1170.725 1085.153,1172.438 1083.789,1174.748C1082.425,1177.058 1081.652,1179.628 1081.469,1182.458C1081.286,1185.288 1081.793,1188.083 1082.991,1190.844Z" style="fill:rgb(48,72,48);"/>
                <path d="M1179.357,1178.806L1175.946,1179.563L1171.754,1158.8C1170.809,1154.118 1169.412,1150.809 1167.563,1148.873C1165.715,1146.937 1163.367,1146.285 1160.521,1146.917C1157.578,1147.571 1155.2,1149.224 1153.388,1151.878C1151.576,1154.533 1150.565,1157.653 1150.355,1161.24L1154.993,1184.215L1151.583,1184.973L1147.392,1164.209C1146.431,1159.453 1145.042,1156.123 1143.223,1154.219C1141.404,1152.315 1139.072,1151.68 1136.226,1152.312C1133.328,1152.955 1130.963,1154.581 1129.132,1157.19C1127.3,1159.798 1126.258,1162.926 1126.006,1166.571L1130.659,1189.618L1127.25,1190.376L1119.737,1153.164L1122.906,1152.46L1124.701,1161.349C1125.594,1157.983 1127.06,1155.213 1129.096,1153.038C1131.133,1150.864 1133.568,1149.462 1136.402,1148.833C1139.357,1148.177 1141.957,1148.56 1144.203,1149.983C1146.449,1151.405 1148.055,1153.585 1149.022,1156.522C1150.043,1152.818 1151.539,1149.868 1153.511,1147.671C1155.482,1145.475 1157.948,1144.049 1160.909,1143.391C1162.853,1142.96 1164.58,1142.959 1166.089,1143.391C1167.598,1143.822 1168.929,1144.644 1170.082,1145.858C1171.235,1147.071 1172.219,1148.653 1173.033,1150.605C1173.847,1152.556 1174.515,1154.825 1175.037,1157.411L1179.357,1178.806Z" style="fill:rgb(48,72,48);"/>
                <path d="M1205.417,1179.733C1202.884,1179.725 1200.53,1179.193 1198.357,1178.139C1196.184,1177.084 1194.289,1175.64 1192.67,1173.808C1191.052,1171.975 1189.793,1169.856 1188.894,1167.452C1187.995,1165.047 1187.549,1162.491 1187.557,1159.783C1187.567,1156.204 1188.353,1152.945 1189.916,1150.004C1191.478,1147.064 1193.603,1144.716 1196.289,1142.963C1198.976,1141.209 1202.002,1140.337 1205.367,1140.348C1208.779,1140.359 1211.815,1141.262 1214.476,1143.057C1217.138,1144.852 1219.239,1147.226 1220.78,1150.18C1222.321,1153.133 1223.086,1156.384 1223.076,1159.931C1223.075,1160.227 1223.069,1160.512 1223.058,1160.784C1223.047,1161.057 1223.031,1161.288 1223.01,1161.476L1191.191,1161.376C1191.395,1164.297 1192.16,1166.92 1193.486,1169.244C1194.813,1171.568 1196.536,1173.404 1198.656,1174.753C1200.777,1176.101 1203.077,1176.78 1205.557,1176.787C1208.099,1176.795 1210.483,1176.13 1212.709,1174.79C1214.934,1173.45 1216.5,1171.709 1217.405,1169.566L1220.481,1170.458C1219.763,1172.226 1218.65,1173.818 1217.141,1175.235C1215.632,1176.651 1213.865,1177.757 1211.839,1178.551C1209.813,1179.346 1207.672,1179.74 1205.417,1179.733ZM1191.107,1158.591L1219.739,1158.681C1219.562,1155.678 1218.818,1153.027 1217.507,1150.727C1216.196,1148.428 1214.494,1146.616 1212.399,1145.292C1210.305,1143.968 1207.971,1143.302 1205.398,1143.294C1202.87,1143.286 1200.556,1143.937 1198.454,1145.248C1196.353,1146.558 1194.651,1148.366 1193.35,1150.671C1192.049,1152.976 1191.301,1155.616 1191.107,1158.591Z" style="fill:rgb(48,72,48);"/>
                <path d="M1282.969,1190.8L1279.562,1190.023L1283.858,1169.284C1284.827,1164.607 1284.847,1160.988 1283.918,1158.427C1282.989,1155.867 1281.103,1154.263 1278.259,1153.615C1275.32,1152.945 1272.505,1153.431 1269.814,1155.073C1267.123,1156.714 1264.981,1159.125 1263.387,1162.306L1258.633,1185.256L1255.227,1184.48L1259.523,1163.74C1260.507,1158.989 1260.542,1155.354 1259.628,1152.836C1258.713,1150.318 1256.835,1148.735 1253.991,1148.087C1251.097,1147.428 1248.305,1147.894 1245.614,1149.485C1242.923,1151.077 1240.75,1153.481 1239.095,1156.698L1234.327,1179.719L1230.921,1178.943L1238.62,1141.773L1241.785,1142.494L1239.946,1151.374C1242.078,1148.688 1244.497,1146.791 1247.205,1145.684C1249.913,1144.577 1252.682,1144.345 1255.512,1144.99C1258.464,1145.662 1260.686,1147.13 1262.178,1149.394C1263.67,1151.657 1264.283,1154.336 1264.016,1157.43C1266.396,1154.491 1268.914,1152.444 1271.571,1151.288C1274.228,1150.133 1277.035,1149.893 1279.992,1150.566C1281.934,1151.009 1283.509,1151.751 1284.717,1152.793C1285.925,1153.836 1286.817,1155.158 1287.394,1156.761C1287.971,1158.363 1288.25,1160.23 1288.229,1162.359C1288.209,1164.489 1287.931,1166.845 1287.396,1169.429L1282.969,1190.8Z" style="fill:rgb(48,72,48);"/>
                <path d="M1294.09,1184.385C1294.974,1182.308 1296.336,1180.779 1298.176,1179.797C1300.016,1178.814 1302.157,1178.376 1304.6,1178.482C1307.042,1178.588 1309.628,1179.28 1312.358,1180.558C1314.057,1181.353 1315.76,1182.327 1317.467,1183.48C1319.175,1184.632 1320.628,1185.827 1321.827,1187.065L1323.24,1183.745C1324.599,1180.553 1324.797,1177.587 1323.832,1174.847C1322.868,1172.107 1320.854,1170.021 1317.792,1168.587C1316.11,1167.8 1314.232,1167.349 1312.157,1167.234C1310.082,1167.119 1307.825,1167.295 1305.387,1167.762L1305.093,1164.718C1307.886,1164.187 1310.456,1164.012 1312.804,1164.192C1315.153,1164.372 1317.316,1164.925 1319.294,1165.852C1323.23,1167.694 1325.833,1170.371 1327.105,1173.884C1328.376,1177.397 1328.111,1181.269 1326.31,1185.5L1318.983,1202.715C1318.743,1203.277 1318.68,1203.748 1318.793,1204.126C1318.905,1204.505 1319.181,1204.808 1319.62,1205.037L1318.449,1207.786C1318.047,1207.645 1317.72,1207.519 1317.468,1207.41C1317.216,1207.301 1317.015,1207.196 1316.866,1207.096C1316.091,1206.614 1315.613,1205.974 1315.434,1205.177C1315.254,1204.379 1315.294,1203.624 1315.553,1202.911L1316.673,1200.121C1314.328,1201.432 1311.715,1202.083 1308.834,1202.075C1305.953,1202.067 1303.201,1201.449 1300.578,1200.221C1298.491,1199.243 1296.813,1197.892 1295.546,1196.166C1294.279,1194.441 1293.509,1192.54 1293.237,1190.464C1292.964,1188.389 1293.249,1186.362 1294.09,1184.385ZM1315.696,1197.908C1316.344,1197.553 1316.891,1197.153 1317.338,1196.707C1317.784,1196.262 1318.097,1195.829 1318.276,1195.409L1320.726,1189.653C1319.466,1188.303 1318.07,1187.081 1316.535,1185.986C1315,1184.891 1313.367,1183.939 1311.635,1183.128C1308.317,1181.575 1305.34,1181.015 1302.702,1181.448C1300.065,1181.881 1298.247,1183.27 1297.249,1185.615C1296.627,1187.076 1296.409,1188.596 1296.594,1190.175C1296.779,1191.755 1297.362,1193.227 1298.344,1194.591C1299.325,1195.956 1300.667,1197.036 1302.369,1197.833C1304.725,1198.936 1307.109,1199.485 1309.52,1199.48C1311.932,1199.474 1313.99,1198.95 1315.696,1197.908Z" style="fill:rgb(48,72,48);"/>
                <path d="M1334.485,1195.296C1336.365,1192.342 1338.696,1190.044 1341.476,1188.403C1344.255,1186.762 1347.171,1185.917 1350.223,1185.869C1353.274,1185.821 1356.133,1186.731 1358.8,1188.598C1361.408,1190.423 1363.266,1192.782 1364.376,1195.672C1365.486,1198.563 1365.972,1201.419 1365.834,1204.24L1378.342,1184.592L1381.24,1186.621L1355.559,1226.963C1355.247,1227.452 1355.113,1227.899 1355.157,1228.303C1355.2,1228.708 1355.42,1229.061 1355.815,1229.364L1354.221,1231.868C1353.555,1231.505 1353.074,1231.187 1352.778,1230.914C1352.168,1230.324 1351.811,1229.588 1351.705,1228.705C1351.6,1227.821 1351.759,1227.047 1352.182,1226.382L1354.404,1222.891C1351.844,1224.094 1349.118,1224.598 1346.226,1224.404C1343.335,1224.211 1340.775,1223.333 1338.546,1221.773C1336.459,1220.311 1334.819,1218.509 1333.626,1216.365C1332.433,1214.221 1331.683,1211.919 1331.376,1209.461C1331.069,1207.003 1331.177,1204.552 1331.699,1202.108C1332.221,1199.664 1333.149,1197.394 1334.485,1195.296ZM1356.868,1218.324L1363.473,1207.948C1363.938,1206.018 1363.974,1204.004 1363.583,1201.906C1363.191,1199.808 1362.482,1197.85 1361.454,1196.033C1360.427,1194.216 1359.179,1192.793 1357.709,1191.764C1355.942,1190.528 1354.108,1189.8 1352.206,1189.582C1350.303,1189.364 1348.431,1189.555 1346.589,1190.155C1344.747,1190.755 1343.039,1191.677 1341.467,1192.922C1339.895,1194.167 1338.554,1195.662 1337.443,1197.406C1336.293,1199.213 1335.502,1201.146 1335.07,1203.206C1334.638,1205.266 1334.57,1207.321 1334.867,1209.373C1335.164,1211.425 1335.808,1213.319 1336.799,1215.056C1337.791,1216.793 1339.129,1218.251 1340.814,1219.431C1341.87,1220.171 1343.13,1220.732 1344.593,1221.114C1346.056,1221.495 1347.571,1221.66 1349.14,1221.608C1350.708,1221.555 1352.172,1221.261 1353.532,1220.725C1354.893,1220.188 1356.004,1219.388 1356.868,1218.324Z" style="fill:rgb(48,72,48);"/>
                <path d="M1372.111,1250.154C1370.293,1248.304 1368.951,1246.208 1368.086,1243.866C1367.22,1241.525 1366.812,1239.106 1366.861,1236.608C1366.91,1234.111 1367.407,1231.67 1368.352,1229.285C1369.296,1226.899 1370.668,1224.735 1372.467,1222.792C1374.844,1220.224 1377.568,1218.451 1380.639,1217.473C1383.71,1216.495 1386.793,1216.352 1389.888,1217.047C1392.982,1217.741 1395.737,1219.317 1398.152,1221.775C1400.6,1224.267 1402.187,1227.128 1402.913,1230.358C1403.64,1233.588 1403.58,1236.827 1402.734,1240.074C1401.887,1243.321 1400.286,1246.218 1397.929,1248.764C1397.733,1248.976 1397.54,1249.176 1397.351,1249.364C1397.163,1249.552 1396.998,1249.706 1396.858,1249.827L1374.028,1226.585C1372.24,1228.836 1371.054,1231.28 1370.469,1233.918C1369.885,1236.557 1369.91,1239.133 1370.543,1241.647C1371.176,1244.162 1372.382,1246.325 1374.162,1248.137C1375.986,1249.994 1378.142,1251.25 1380.63,1251.907C1383.119,1252.563 1385.399,1252.45 1387.469,1251.568L1389.092,1254.449C1387.405,1255.199 1385.55,1255.534 1383.526,1255.455C1381.502,1255.375 1379.498,1254.884 1377.514,1253.98C1375.53,1253.077 1373.729,1251.802 1372.111,1250.154ZM1375.811,1224.519L1396.356,1245.434C1398.217,1243.144 1399.437,1240.694 1400.016,1238.085C1400.595,1235.475 1400.569,1232.932 1399.939,1230.454C1399.308,1227.976 1398.07,1225.797 1396.224,1223.918C1394.41,1222.071 1392.313,1220.855 1389.933,1220.268C1387.553,1219.681 1385.131,1219.743 1382.669,1220.454C1380.206,1221.165 1377.92,1222.52 1375.811,1224.519Z" style="fill:rgb(48,72,48);"/>
                <path d="M1463.862,1293.643L1420.903,1319.415L1419.142,1316.186L1439.699,1303.853L1424.193,1275.426L1403.635,1287.759L1401.874,1284.531L1444.833,1258.758L1446.594,1261.987L1427.004,1273.739L1442.511,1302.166L1462.101,1290.414L1463.862,1293.643Z" style="fill:rgb(48,72,48);"/>
                <path d="M1434.06,1324.419C1436.118,1323.703 1438.113,1323.726 1440.046,1324.488C1441.979,1325.25 1443.731,1326.612 1445.304,1328.575C1446.877,1330.537 1448.134,1333.006 1449.075,1335.982C1449.661,1337.834 1450.124,1339.809 1450.465,1341.908C1450.805,1344.007 1450.944,1345.939 1450.881,1347.702L1454.172,1346.557C1457.335,1345.456 1459.557,1343.608 1460.835,1341.014C1462.113,1338.419 1462.224,1335.453 1461.168,1332.115C1460.588,1330.282 1459.638,1328.523 1458.32,1326.839C1457.001,1325.155 1455.355,1323.527 1453.382,1321.954L1455.326,1319.673C1457.584,1321.477 1459.441,1323.349 1460.898,1325.289C1462.355,1327.229 1463.425,1329.277 1464.107,1331.433C1465.464,1335.723 1465.335,1339.544 1463.72,1342.898C1462.105,1346.252 1459.2,1348.658 1455.007,1350.118L1437.945,1356.055C1437.387,1356.249 1437.013,1356.517 1436.823,1356.86C1436.633,1357.203 1436.605,1357.621 1436.74,1358.115L1434.015,1359.063C1433.843,1358.656 1433.711,1358.318 1433.618,1358.049C1433.525,1357.78 1433.463,1357.554 1433.433,1357.371C1433.249,1356.446 1433.378,1355.645 1433.818,1354.968C1434.258,1354.291 1434.817,1353.813 1435.494,1353.532L1438.213,1352.517C1435.709,1351.586 1433.488,1350.002 1431.551,1347.766C1429.613,1345.53 1428.192,1342.982 1427.288,1340.123C1426.568,1337.847 1426.388,1335.637 1426.748,1333.492C1427.108,1331.347 1427.927,1329.47 1429.204,1327.858C1430.482,1326.247 1432.1,1325.101 1434.06,1324.419ZM1439.112,1350.268C1439.799,1350.531 1440.45,1350.684 1441.065,1350.73C1441.68,1350.775 1442.195,1350.725 1442.611,1350.58L1448.317,1348.595C1448.417,1346.71 1448.335,1344.804 1448.071,1342.877C1447.807,1340.95 1447.376,1339.043 1446.779,1337.155C1445.634,1333.539 1444.02,1330.856 1441.936,1329.106C1439.853,1327.356 1437.648,1326.885 1435.324,1327.694C1433.877,1328.198 1432.659,1329.054 1431.672,1330.263C1430.685,1331.472 1430.042,1332.916 1429.743,1334.596C1429.445,1336.276 1429.589,1338.044 1430.176,1339.899C1430.989,1342.468 1432.21,1344.684 1433.84,1346.547C1435.471,1348.41 1437.228,1349.651 1439.112,1350.268Z" style="fill:rgb(48,72,48);"/>
                <path d="M1437.595,1386.062C1437.241,1383.113 1437.659,1380.256 1438.85,1377.491C1440.041,1374.727 1441.669,1372.469 1443.733,1370.717L1436.568,1371.663L1436.171,1368.357L1486.658,1361.69L1487.094,1365.316L1464.743,1368.268C1467.438,1369.725 1469.716,1371.565 1471.579,1373.787C1473.441,1376.008 1474.565,1378.72 1474.95,1381.923C1475.273,1384.615 1475.03,1387.091 1474.221,1389.351C1473.412,1391.611 1472.198,1393.61 1470.577,1395.35C1468.957,1397.09 1467.089,1398.498 1464.972,1399.574C1462.856,1400.65 1460.64,1401.341 1458.325,1401.647C1455.841,1401.975 1453.433,1401.831 1451.101,1401.217C1448.769,1400.602 1446.639,1399.587 1444.713,1398.171C1442.787,1396.756 1441.196,1395.024 1439.94,1392.977C1438.684,1390.93 1437.902,1388.625 1437.595,1386.062ZM1440.602,1384.949C1440.864,1387.133 1441.539,1389.086 1442.626,1390.81C1443.713,1392.534 1445.077,1393.974 1446.716,1395.129C1448.354,1396.283 1450.141,1397.107 1452.075,1397.6C1454.008,1398.093 1455.944,1398.212 1457.882,1397.956C1460.569,1397.601 1463.031,1396.658 1465.269,1395.128C1467.507,1393.598 1469.233,1391.657 1470.448,1389.304C1471.663,1386.951 1472.098,1384.338 1471.753,1381.466C1471.499,1379.353 1470.815,1377.461 1469.701,1375.789C1468.586,1374.117 1467.231,1372.703 1465.633,1371.546C1464.036,1370.388 1462.334,1369.481 1460.525,1368.825L1448.615,1370.397C1447.301,1370.734 1446.116,1371.42 1445.06,1372.455C1444.005,1373.49 1443.122,1374.729 1442.413,1376.172C1441.703,1377.615 1441.184,1379.108 1440.856,1380.651C1440.528,1382.194 1440.443,1383.627 1440.602,1384.949Z" style="fill:rgb(48,72,48);"/>
                <path d="M1440.001,1412.863L1476.272,1412.894L1476.269,1416.55L1439.998,1416.518L1440.001,1412.863ZM1484.504,1412.902L1490.887,1412.907L1490.884,1416.562L1484.502,1416.557L1484.504,1412.902Z" style="fill:rgb(48,72,48);"/>
                <path d="M1440.006,1445.093C1439.924,1444.849 1439.736,1444.337 1439.442,1443.557C1439.147,1442.777 1438.895,1441.821 1438.685,1440.688C1438.475,1439.555 1438.428,1438.309 1438.543,1436.95C1438.656,1435.613 1439.007,1434.401 1439.596,1433.312C1440.185,1432.223 1440.992,1431.383 1442.015,1430.791C1443.039,1430.199 1444.239,1429.968 1445.615,1430.096L1472.819,1432.625L1473.27,1427.292L1476.16,1427.561L1475.709,1432.894L1488.062,1434.042L1487.754,1437.683L1475.401,1436.535L1474.654,1445.379L1471.763,1445.111L1472.511,1436.266L1446.135,1433.813C1444.805,1433.787 1443.762,1434.21 1443.006,1435.081C1442.251,1435.951 1441.822,1436.986 1441.721,1438.185C1441.594,1439.69 1441.73,1441.027 1442.129,1442.195C1442.529,1443.363 1442.774,1444.041 1442.866,1444.229L1440.006,1445.093Z" style="fill:rgb(48,72,48);"/>
                <path d="M1434.309,1462.851C1434.92,1459.915 1435.964,1457.293 1437.441,1454.983C1438.917,1452.673 1440.829,1450.791 1443.177,1449.339L1445.187,1451.549C1442.939,1453.14 1441.173,1454.897 1439.89,1456.82C1438.607,1458.743 1437.71,1460.93 1437.2,1463.381C1436.538,1466.563 1436.63,1469.295 1437.476,1471.574C1438.322,1473.854 1439.894,1475.257 1442.192,1475.783C1443.737,1476.137 1445.019,1475.945 1446.037,1475.208C1447.056,1474.47 1448.014,1473.288 1448.911,1471.66C1449.808,1470.032 1450.798,1468.05 1451.881,1465.714C1453.062,1463.317 1454.17,1461.336 1455.206,1459.77C1456.242,1458.203 1457.4,1457.113 1458.678,1456.5C1459.957,1455.887 1461.527,1455.793 1463.389,1456.219C1465.71,1456.75 1467.495,1457.8 1468.743,1459.369C1469.991,1460.937 1470.777,1462.838 1471.102,1465.071C1471.427,1467.303 1471.327,1469.68 1470.802,1472.202C1470.2,1475.097 1469.22,1477.527 1467.862,1479.49C1466.504,1481.454 1464.947,1482.846 1463.192,1483.667L1461.465,1481.199C1463.134,1480.369 1464.526,1479.075 1465.642,1477.318C1466.759,1475.56 1467.556,1473.533 1468.034,1471.237C1468.39,1469.526 1468.494,1467.865 1468.347,1466.256C1468.2,1464.647 1467.717,1463.255 1466.898,1462.08C1466.078,1460.905 1464.81,1460.121 1463.093,1459.728C1461.73,1459.416 1460.591,1459.513 1459.676,1460.018C1458.762,1460.524 1457.921,1461.413 1457.154,1462.685C1456.388,1463.957 1455.516,1465.568 1454.539,1467.519C1453.242,1470.248 1452.013,1472.586 1450.853,1474.532C1449.692,1476.478 1448.412,1477.889 1447.012,1478.766C1445.612,1479.643 1443.86,1479.84 1441.756,1479.359C1438.548,1478.625 1436.284,1476.752 1434.964,1473.74C1433.644,1470.728 1433.425,1467.098 1434.309,1462.851Z" style="fill:rgb(48,72,48);"/>
            </g>
            <g transform="matrix(0.104691,0,0,1,1959.909381,719.339868)">
                <path d="M150,839L2400,839" style="fill:none;stroke:rgb(48,72,48);stroke-width:2.93px;"/>
            </g>
            <g transform="matrix(0.072691,0,0,0.69434,2000.709381,1001.856926)">
                <path d="M150,839L2400,839" style="fill:none;stroke:rgb(48,72,48);stroke-width:4.22px;"/>
            </g>
            <g transform="matrix(0.048346,0,0,0.461792,2031.750122,1221.467358)">
                <path d="M150,839L2400,839" style="fill:none;stroke:rgb(48,72,48);stroke-width:6.35px;"/>
            </g>
            <g transform="matrix(0.317925,0,0,0.317925,2052.696419,1323.895424)">
                <path d="M138.54,149.46C106.62,96.25 149.18,43.05 239.63,48.37C245,138.82 191.75,181.38 138.54,149.46Z" style="fill:none;stroke:rgb(48,72,48);stroke-width:16px;stroke-miterlimit:4;"/>
            </g>
            <g transform="matrix(0.317925,0,0,0.317925,2052.696419,1323.895424)">
                <path d="M88.47,160.47C111.27,122.47 80.87,84.47 16.26,88.26C12.46,152.87 50.47,183.27 88.47,160.47Z" style="fill:none;stroke:rgb(48,72,48);stroke-width:16px;stroke-miterlimit:4;"/>
            </g>
            <g transform="matrix(0.317925,0,0,0.317925,2052.696419,1323.895424)">
                <path d="M56,128L120,192" style="fill:none;stroke:rgb(48,72,48);stroke-width:16px;stroke-miterlimit:4;"/>
            </g>
            <g transform="matrix(0.317925,0,0,0.317925,2052.696419,1323.895424)">
                <path d="M200,88L138.75,149.25C126.749,161.248 120,177.54 120,194.51L120,224" style="fill:none;stroke:rgb(48,72,48);stroke-width:16px;stroke-miterlimit:4;"/>
            </g>
        </g>
    </g>
</svg>
